<svg width="41" height="41" viewBox="0 0 41 41" fill="none" xmlns="http://www.w3.org/2000/svg">
<g clip-path="url(#clip0_11653_114)">
<path d="M20.3761 0.588651L20.1852 1.84637L21.4534 2.03569L21.6443 0.777966L20.3761 0.588651Z" fill="#3E387B"/>
<path d="M23.9159 5.34302L23.725 6.60074L24.9932 6.79005L25.1841 5.53233L23.9159 5.34302Z" fill="#3E387B"/>
<path d="M15.5821 4.09826L15.3912 5.35599L16.6595 5.5453L16.8504 4.28758L15.5821 4.09826Z" fill="#3E387B"/>
<path d="M24.5808 6.08606L24.4213 6.06251C24.7649 3.80305 23.1897 1.68744 20.9113 1.34759C18.633 1.00691 16.4997 2.56901 16.157 4.82847L15.9976 4.80492C16.3538 2.45797 18.5694 0.836143 20.9359 1.18945C23.3025 1.54275 24.9379 3.73996 24.5816 6.0869L24.5808 6.08606Z" fill="#3E387B"/>
<path d="M16.4196 0.560916L16.3956 0.718964L25.3421 2.05443L25.366 1.89639L16.4196 0.560916Z" fill="#3E387B"/>
<path d="M25.3553 2.61106C25.7094 2.61106 25.9965 2.32634 25.9965 1.97512C25.9965 1.62389 25.7094 1.33917 25.3553 1.33917C25.0011 1.33917 24.714 1.62389 24.714 1.97512C24.714 2.32634 25.0011 2.61106 25.3553 2.61106Z" fill="#3E387B"/>
<path d="M16.3878 1.27189C16.742 1.27189 17.0291 0.987169 17.0291 0.635946C17.0291 0.284723 16.742 0 16.3878 0C16.0337 0 15.7466 0.284723 15.7466 0.635946C15.7466 0.987169 16.0337 1.27189 16.3878 1.27189Z" fill="#3E387B"/>
<path d="M18.769 7.60557L18.619 8.59378L20.8837 8.93184L21.0337 7.94363L18.769 7.60557Z" fill="#3E387B"/>
<path d="M20.5917 2.73558C20.5832 2.7911 20.5747 2.84577 20.5662 2.90129C20.45 3.66426 20.3329 4.42723 20.2193 5.19103C20.2108 5.2474 20.1904 5.26674 20.1353 5.27852C19.9436 5.31974 19.8113 5.49471 19.8198 5.6865C19.8283 5.8825 19.9792 6.04485 20.1752 6.07009C20.3669 6.09532 20.5484 5.98176 20.6146 5.79586C20.6765 5.62005 20.5951 5.40891 20.4229 5.31806C20.3745 5.29282 20.3542 5.27179 20.3635 5.21375C20.4865 4.42134 20.6061 3.62809 20.7265 2.83484C20.7308 2.8096 20.7367 2.78437 20.7571 2.75913C20.8139 2.93158 20.8707 3.10486 20.9276 3.27731C21.255 4.2817 21.5815 5.28609 21.9098 6.28964C21.9276 6.34348 21.9268 6.38554 21.8971 6.43601C21.663 6.83894 21.4314 7.24272 21.2007 7.64649C21.1761 7.68855 21.1506 7.70117 21.1023 7.6936C20.3279 7.57667 19.5526 7.46059 18.7773 7.34618C18.7281 7.33861 18.7077 7.31843 18.6976 7.27132C18.5958 6.81202 18.4914 6.35357 18.3914 5.89428C18.3846 5.86147 18.3914 5.81605 18.4109 5.78913C19.12 4.78305 19.8308 3.77866 20.5425 2.77343C20.5526 2.75913 20.5637 2.74483 20.5747 2.73053C20.5798 2.73221 20.5857 2.73305 20.5908 2.73474L20.5917 2.73558Z" fill="#3E387B"/>
<path d="M18.1734 8.91418H17.0562L13.1171 9.61406C13.1171 9.61406 12.1764 9.32217 11.0593 9.6721L6.29646 11.4218C6.29646 11.4218 5.35577 11.9467 4.94438 12.8796C4.94438 12.8796 3.41587 12.8216 2.23938 14.2205C2.23938 14.2205 -0.11276 15.5033 0.00514343 18.5939C0.123047 21.6844 1.82799 22.6753 2.59224 23.0842C2.59224 23.0842 3.65083 24.309 5.06144 24.309L5.11996 25.5918C5.11996 25.5918 5.23787 26.4666 6.29561 26.8166L9.05914 27.6914C9.05914 27.6914 8.58837 28.7993 8.64775 29.4991C8.64775 29.4991 7.05986 30.141 6.41351 32.4147L1.51245 33.2425C1.16467 33.3014 0.928865 33.6252 0.981455 33.9701L1.37673 36.556C1.43102 36.9084 1.76437 37.1498 2.11978 37.0926L6.17855 36.4382C6.17855 36.4382 7.11924 38.2459 9.35348 37.488C9.30089 37.5057 9.49852 38.2611 9.51294 38.3124C9.58674 38.5723 9.68004 38.8272 9.80219 39.0678C9.92433 39.3084 10.1695 39.5313 10.2645 39.7651C10.0151 39.8728 9.7708 39.9679 9.54772 40.1277C9.47053 40.1832 9.38995 40.253 9.38232 40.3472C9.36874 40.5138 9.57486 40.6013 9.74027 40.6349C12.2943 41.1531 14.9348 41.0387 17.5304 40.7981C18.9198 40.6694 20.3109 40.5045 21.663 40.1597C22.1304 40.041 22.6062 39.893 22.9769 39.5868C23.0643 39.5145 23.1516 39.3967 23.0956 39.2983C23.0719 39.257 23.0278 39.2318 22.9854 39.2099C22.6673 39.0476 22.3161 38.9769 21.9666 38.9172C21.9666 38.9172 22.6138 38.4503 22.6724 36.7015C22.6724 36.7015 23.7895 36.5846 23.7895 35.4187V34.0534C23.7895 34.0534 27.1408 35.9436 29.258 32.678L33.7884 30.9654L35.2558 29.7044C35.2558 29.7044 35.6087 29.4848 35.2558 29.3031L33.4949 28.6908L23.7318 29.6455L23.6139 29.0626H25.1424C25.1424 29.0626 27.7295 28.8876 28.0238 26.0889L29.3174 15.5933C29.3174 15.5933 29.9052 12.5027 26.6718 11.5698L23.4968 11.103V10.6361C23.4968 10.6361 23.3789 9.76127 22.4383 9.52826L18.734 8.94531" fill="#3E387B"/>
<path d="M23.524 11.7717L26.5225 12.2386C26.5225 12.2386 29.051 12.8215 28.6982 15.4461L27.4046 26.0586C27.4046 26.0586 26.8753 28.4493 25.1119 28.3913L11.6471 27.7494C11.6471 27.7494 9.53075 27.5745 9.41284 25.4168V12.5911C9.41284 12.5911 9.82423 9.90679 12.5878 10.1978L17.9087 10.9852L17.8502 12.5599C17.8502 12.5599 18.0012 13.6165 19.0725 13.7881L22.4951 14.3096C22.4951 14.3096 23.4358 14.3677 23.4358 13.6097L23.524 11.7726V11.7717Z" fill="#7777E8"/>
<path d="M24.1755 12.6744C24.1958 12.6693 24.2187 12.6701 24.2399 12.6718C24.8277 12.7097 25.4249 12.7879 25.9856 12.9763C27.2528 13.4011 27.9636 14.488 27.7864 15.8087C27.4785 18.1001 27.2113 20.3974 26.9407 22.693C26.7643 24.1862 26.9178 27.0597 24.9244 27.4736C24.5232 27.5568 24.1093 27.5299 23.7005 27.5038C21.6036 27.3684 19.5051 27.2515 17.4057 27.1531C16.3565 27.1043 15.3055 27.0479 14.2554 27.0201C13.369 26.9974 12.4555 27.1009 11.6183 26.7451C10.5147 26.2471 10.3298 25.1476 10.3273 24.0717C10.323 22.3002 10.3188 20.5286 10.3154 18.7571C10.3112 17.02 10.1432 15.1937 10.3154 13.4701C10.3553 13.0672 10.452 12.6701 10.6496 12.3135C10.8549 11.9434 11.1628 11.6296 11.5301 11.4159C12.3588 10.9348 13.3945 10.9936 14.336 11.1821C15.1868 11.352 16.0477 11.4487 16.8909 11.6186C16.9791 11.6363 17.069 11.6582 17.1411 11.7103C17.248 11.7886 17.2989 11.9215 17.3277 12.0502C17.4176 12.443 17.3659 12.8645 17.5067 13.243C17.6432 13.6081 17.9503 13.8924 18.3006 14.0682C18.8901 14.3643 19.606 14.3904 20.2482 14.493C20.9921 14.6116 21.736 14.7302 22.4824 14.8278C22.8157 14.8716 23.1779 14.8556 23.4562 14.6672C24.0347 14.276 24.0296 13.3953 24.1076 12.782C24.1118 12.7484 24.1178 12.7105 24.1449 12.6895C24.1543 12.6828 24.1644 12.6777 24.1746 12.6752L24.1755 12.6744Z" fill="white"/>
<path d="M6.07247 32.9666L1.4844 33.7337C1.41569 33.7455 1.37243 33.8128 1.39025 33.8793L1.50476 34.2957C1.52087 34.3529 1.5777 34.389 1.63708 34.3798L6.02242 33.6808C6.07162 33.6732 6.11064 33.6353 6.11912 33.5865L6.20649 33.102C6.22091 33.0229 6.15136 32.9531 6.07162 32.9666H6.07247Z" fill="#7777E8"/>
<path d="M5.90969 34.5102L1.77118 35.2218C1.70502 35.2336 1.65752 35.2925 1.6626 35.3598L1.70247 35.9166C1.70756 35.9932 1.77796 36.0479 1.8543 36.0361L5.95295 35.3909C6.01656 35.3808 6.06407 35.3261 6.06407 35.2622V34.6389C6.06407 34.5581 5.99027 34.4967 5.90969 34.5102Z" fill="#7777E8"/>
<path d="M22.9362 28.9734L13.7261 28.5065C13.7261 28.5065 12.4699 29.4394 12.1764 31.4802L23.0541 29.7305L22.9362 28.9726V28.9734Z" fill="white"/>
<mask id="mask0_11653_114" style="mask-type:luminance" maskUnits="userSpaceOnUse" x="12" y="28" width="12" height="4">
<path d="M22.9362 28.9734L13.7261 28.5065C13.7261 28.5065 12.4699 29.4394 12.1764 31.4802L23.0541 29.7305L22.9362 28.9726V28.9734Z" fill="white"/>
</mask>
<g mask="url(#mask0_11653_114)">
<path d="M16.2513 28.3913C16.2513 28.3913 13.9483 29.0903 13.7677 31.481L11.994 31.7704V29.447L13.7634 28.0405L16.2521 28.3913H16.2513Z" fill="#7777E8"/>
</g>
<path d="M23.1712 33.6967L11.9991 35.5625C11.9991 35.5625 11.8812 36.2624 12.7634 36.3785C12.7634 36.3785 19.2311 36.9614 22.6419 36.0285C22.6419 36.0285 23.1712 35.9562 23.1712 35.205V33.6959V33.6967Z" fill="white"/>
<mask id="mask1_11653_114" style="mask-type:luminance" maskUnits="userSpaceOnUse" x="11" y="33" width="13" height="4">
<path d="M23.1712 33.6967L11.9991 35.5625C11.9991 35.5625 11.8812 36.2624 12.7634 36.3785C12.7634 36.3785 19.2311 36.9614 22.6419 36.0285C22.6419 36.0285 23.1712 35.9562 23.1712 35.205V33.6959V33.6967Z" fill="white"/>
</mask>
<g mask="url(#mask1_11653_114)">
<path d="M13.4106 34.9796C13.4106 34.9796 13.1731 36.6123 13.9094 36.8453L11.5386 36.5585L11.7362 35.1276L13.4106 34.9796Z" fill="#7777E8"/>
</g>
<path d="M9.91495 36.227C9.94379 36.0723 9.90477 35.9065 9.77669 35.8182C9.71477 35.7753 9.64097 35.7551 9.57227 35.724C9.3195 35.6071 9.16681 35.3371 9.12016 35.0637C9.07351 34.7911 9.11677 34.5118 9.15918 34.2385C9.26097 33.5882 9.36615 32.9279 9.65285 32.334C9.85218 31.9218 10.1346 31.5508 10.306 31.1269C10.457 30.7534 10.5163 30.2983 10.3221 29.9282C10.0829 29.4722 9.62316 29.7397 9.27624 29.9315C8.65873 30.273 8.04291 30.6667 7.62643 31.2472C7.20825 31.8293 7.03013 32.546 6.91731 33.2517C6.82401 33.8347 6.76887 34.4235 6.7536 35.0132C6.74003 35.507 6.76124 36.0268 7.01401 36.4533C7.3796 37.0708 7.98608 37.0338 8.61122 36.9883C9.06079 36.9564 9.60111 36.8117 9.85049 36.397C9.88102 36.3457 9.90308 36.2868 9.9141 36.2262L9.91495 36.227Z" fill="#7777E8"/>
<path d="M15.8797 37.3122H16.7025C16.7025 37.3122 16.761 38.4781 17.1733 38.828L15.5269 38.8861C15.5269 38.8861 15.9976 38.0701 15.8797 37.3113V37.3122Z" fill="white"/>
<path d="M21.9361 36.8453C21.9361 36.8453 19.4075 37.2533 18.1734 37.2533C18.1734 37.2533 17.9969 39.586 20.1726 39.236C22.3483 38.8861 21.9369 36.8453 21.9369 36.8453H21.9361Z" fill="white"/>
<mask id="mask2_11653_114" style="mask-type:luminance" maskUnits="userSpaceOnUse" x="18" y="36" width="4" height="4">
<path d="M21.9361 36.8453C21.9361 36.8453 19.4075 37.2533 18.1734 37.2533C18.1734 37.2533 17.9969 39.586 20.1726 39.236C22.3483 38.8861 21.9369 36.8453 21.9369 36.8453H21.9361Z" fill="white"/>
</mask>
<g mask="url(#mask2_11653_114)">
<path d="M19.6103 36.8453C19.6103 36.8453 18.4363 38.8768 20.0683 39.5229L18.1691 39.5506L17.6144 37.3113L17.879 36.5585L19.6103 36.8453Z" fill="#7777E8"/>
</g>
<path d="M15.2283 37.3122C15.2283 37.3122 11.9991 37.3702 11.0584 37.1372C11.0584 37.1372 10.647 39.7029 12.8812 39.9359C15.1154 40.1689 15.2283 37.3122 15.2283 37.3122Z" fill="white"/>
<mask id="mask3_11653_114" style="mask-type:luminance" maskUnits="userSpaceOnUse" x="11" y="37" width="5" height="3">
<path d="M15.2283 37.3122C15.2283 37.3122 11.9991 37.3702 11.0584 37.1372C11.0584 37.1372 10.647 39.7029 12.8812 39.9359C15.1154 40.1689 15.2283 37.3122 15.2283 37.3122Z" fill="white"/>
</mask>
<g mask="url(#mask3_11653_114)">
<path d="M12.4699 37.022C12.4699 37.022 11.4707 39.178 12.9992 40.2858L10.4401 39.4673V37.3122L11.0296 36.5593L12.4707 37.0228L12.4699 37.022Z" fill="#7777E8"/>
</g>
<path d="M24.994 33.4048C25.3214 33.346 25.6489 33.2862 25.9763 33.2273C26.1094 33.203 26.257 33.171 26.3351 33.0599C26.4173 32.943 26.3894 32.7815 26.3291 32.6528C26.2689 32.5241 26.179 32.4072 26.14 32.2701C26.0891 32.0917 26.1306 31.8991 26.2027 31.7283C26.3656 31.3431 26.6896 31.0285 27.0807 30.8745C27.4717 30.7206 27.9255 30.729 28.3106 30.8989C28.6041 31.0276 28.8755 31.2875 28.8747 31.6055C28.8747 31.7881 28.7856 31.958 28.694 32.1161C28.4404 32.5561 28.1469 32.9826 27.7567 33.3089C26.8898 34.0349 25.9262 33.9112 24.994 33.404V33.4048Z" fill="white"/>
<path d="M16.8798 18.6527C16.2301 18.6527 15.7042 18.1303 15.7042 17.4868C15.7042 17.1369 15.8603 16.8231 16.1071 16.6095C15.8687 16.5354 15.6143 16.4951 15.3513 16.4951C13.9551 16.4951 12.8228 17.6181 12.8228 19.0027C12.8228 20.3873 13.9551 21.5103 15.3513 21.5103C16.7475 21.5103 17.8799 20.3873 17.8799 19.0027C17.8799 18.7419 17.8392 18.4895 17.7645 18.2532C17.5491 18.498 17.2327 18.6527 16.8798 18.6527Z" fill="#3E387B"/>
<path d="M24.3544 19.7993C23.9387 19.7993 23.602 19.4653 23.602 19.0531C23.602 18.8294 23.7021 18.6292 23.8599 18.4921C23.7072 18.445 23.5452 18.4189 23.3764 18.4189C22.4832 18.4189 21.7596 19.1364 21.7596 20.0222C21.7596 20.908 22.4832 21.6255 23.3764 21.6255C24.2696 21.6255 24.9931 20.908 24.9931 20.0222C24.9931 19.8557 24.9676 19.6941 24.9193 19.5427C24.781 19.6992 24.5792 19.7984 24.3535 19.7984L24.3544 19.7993Z" fill="#3E387B"/>
<path d="M2.50573 21.0451C3.3827 21.0451 4.09362 19.8595 4.09362 18.397C4.09362 16.9345 3.3827 15.7489 2.50573 15.7489C1.62877 15.7489 0.917847 16.9345 0.917847 18.397C0.917847 19.8595 1.62877 21.0451 2.50573 21.0451Z" fill="#7777E8"/>
<path d="M2.84665 14.8573C3.23345 14.8085 3.76698 15.24 4.06386 15.4537C4.46592 15.743 4.77468 16.151 4.9791 16.5969C5.25223 17.1899 5.35232 17.8477 5.37607 18.4988C5.40491 19.2929 5.31755 20.1097 4.96214 20.8214C4.59061 21.5667 3.92645 22.1639 3.14269 22.4583C3.36323 22.3759 3.62703 22.4491 3.85859 22.4011C4.12494 22.3456 4.38789 22.2253 4.61945 22.0857C5.69586 21.4405 6.13778 20.1677 6.2014 18.9766C6.22515 18.5325 6.20395 18.0849 6.11827 17.6475C5.96814 16.8745 5.60764 16.1283 5.02576 15.5916C4.44387 15.0558 3.62957 14.7487 2.84326 14.8573C2.84411 14.8573 2.84496 14.8573 2.84665 14.8573Z" fill="#7777E8"/>
<path d="M41.0001 30.0636C40.8296 30.1174 40.7744 30.1528 40.7235 30.1477C39.3231 30.0207 38.1364 30.5692 36.9582 31.2354C36.3407 31.5853 35.6418 31.8713 34.9454 31.9891C33.8707 32.1708 32.9885 31.7325 32.4245 30.771C31.9876 30.0257 32.0529 29.1921 32.6425 28.5595C33.7087 27.4147 35.0345 26.9419 36.5825 27.2691C38.3612 27.6452 39.6242 28.8472 41.0009 30.0628L41.0001 30.0636Z" fill="#3E387B"/>
<mask id="mask4_11653_114" style="mask-type:luminance" maskUnits="userSpaceOnUse" x="32" y="27" width="10" height="6">
<path d="M41.0001 30.0636C40.8296 30.1174 40.7744 30.1528 40.7235 30.1477C39.3231 30.0207 38.1364 30.5692 36.9582 31.2354C36.3407 31.5853 35.6418 31.8713 34.9454 31.9891C33.8707 32.1708 32.9885 31.7325 32.4245 30.771C31.9876 30.0257 32.0529 29.1921 32.6425 28.5595C33.7087 27.4147 35.0345 26.9419 36.5825 27.2691C38.3612 27.6452 39.6242 28.8472 41.0009 30.0628L41.0001 30.0636Z" fill="white"/>
</mask>
<g mask="url(#mask4_11653_114)">
<path d="M35.0218 26.4153C35.0218 26.4153 31.2141 30.5322 35.9107 32.0303L33.6697 32.8295L32.4118 32.2919L30.8595 29.5993C30.8595 29.5993 31.4354 28.1642 31.5533 28.0473C31.6713 27.9303 35.0226 26.4145 35.0226 26.4145L35.0218 26.4153Z" fill="#7777E8"/>
</g>
<path d="M10.2374 32.2919C10.2374 32.2919 26.7897 29.3082 31.1411 29.505C31.1411 29.505 10.7972 32.8875 9.91504 33.2955L10.2374 32.2919Z" fill="#7777E8"/>
<path d="M9.91506 34.071L25.732 31.1378C25.732 31.1378 25.4309 31.9294 25.5819 32.2919L9.79801 34.9282C9.79801 34.9282 9.73948 34.6717 9.91591 34.071H9.91506Z" fill="#7777E8"/>
<path d="M29.2003 30.7887L31.1411 30.5414L30.7882 31.1386L29.3182 31.7805C29.3182 31.7805 29.6126 31.2556 29.2003 30.7895V30.7887Z" fill="#7777E8"/>
</g>
<defs>
<clipPath id="clip0_11653_114">
<rect width="41" height="41" fill="white"/>
</clipPath>
</defs>
</svg>
