<svg width="144" height="41" viewBox="0 0 144 41" fill="none" xmlns="http://www.w3.org/2000/svg">
<path d="M53.18 27V14.96H48.48V12.6H60.96V14.96H56.26V27H53.18ZM66.5184 27C66.4384 26.7067 66.3784 26.3933 66.3384 26.06C66.3118 25.7267 66.2984 25.34 66.2984 24.9H66.2184V20.08C66.2184 19.6667 66.0784 19.3467 65.7984 19.12C65.5318 18.88 65.1318 18.76 64.5984 18.76C64.0918 18.76 63.6851 18.8467 63.3784 19.02C63.0851 19.1933 62.8918 19.4467 62.7984 19.78H59.9384C60.0718 18.86 60.5451 18.1 61.3584 17.5C62.1718 16.9 63.2851 16.6 64.6984 16.6C66.1651 16.6 67.2851 16.9267 68.0584 17.58C68.8318 18.2333 69.2184 19.1733 69.2184 20.4V24.9C69.2184 25.2333 69.2384 25.5733 69.2784 25.92C69.3318 26.2533 69.4118 26.6133 69.5184 27H66.5184ZM62.9584 27.2C61.9451 27.2 61.1384 26.9467 60.5384 26.44C59.9384 25.92 59.6384 25.2333 59.6384 24.38C59.6384 23.4333 59.9918 22.6733 60.6984 22.1C61.4184 21.5133 62.4184 21.1333 63.6984 20.96L66.6784 20.54V22.28L64.1984 22.66C63.6651 22.74 63.2718 22.8867 63.0184 23.1C62.7651 23.3133 62.6384 23.6067 62.6384 23.98C62.6384 24.3133 62.7584 24.5667 62.9984 24.74C63.2384 24.9133 63.5584 25 63.9584 25C64.5851 25 65.1184 24.8333 65.5584 24.5C65.9984 24.1533 66.2184 23.7533 66.2184 23.3L66.4984 24.9C66.2051 25.66 65.7584 26.2333 65.1584 26.62C64.5584 27.0067 63.8251 27.2 62.9584 27.2ZM75.3708 27.2C73.8774 27.2 72.6908 26.9 71.8108 26.3C70.9308 25.7 70.4508 24.8733 70.3708 23.82H73.0508C73.1174 24.2733 73.3441 24.62 73.7308 24.86C74.1308 25.0867 74.6774 25.2 75.3708 25.2C75.9974 25.2 76.4508 25.1133 76.7308 24.94C77.0241 24.7533 77.1708 24.4933 77.1708 24.16C77.1708 23.9067 77.0841 23.7133 76.9108 23.58C76.7508 23.4333 76.4508 23.3133 76.0108 23.22L74.3708 22.88C73.1574 22.6267 72.2641 22.2467 71.6908 21.74C71.1174 21.22 70.8308 20.5533 70.8308 19.74C70.8308 18.7533 71.2108 17.9867 71.9708 17.44C72.7308 16.88 73.7908 16.6 75.1508 16.6C76.4974 16.6 77.5708 16.8733 78.3708 17.42C79.1708 17.9533 79.6108 18.7 79.6908 19.66H77.0108C76.9574 19.3133 76.7708 19.0533 76.4508 18.88C76.1308 18.6933 75.6774 18.6 75.0908 18.6C74.5574 18.6 74.1574 18.68 73.8908 18.84C73.6374 18.9867 73.5108 19.2 73.5108 19.48C73.5108 19.72 73.6174 19.9133 73.8308 20.06C74.0441 20.1933 74.3974 20.3133 74.8908 20.42L76.7308 20.8C77.7574 21.0133 78.5308 21.4133 79.0508 22C79.5841 22.5733 79.8508 23.2533 79.8508 24.04C79.8508 25.04 79.4574 25.82 78.6708 26.38C77.8974 26.9267 76.7974 27.2 75.3708 27.2ZM86.1298 27.22C84.8232 27.22 83.8498 26.9067 83.2098 26.28C82.5832 25.64 82.2698 24.6733 82.2698 23.38V14.52L85.2698 13.4V23.48C85.2698 23.9333 85.3965 24.2733 85.6498 24.5C85.9032 24.7267 86.2965 24.84 86.8298 24.84C87.0298 24.84 87.2165 24.82 87.3898 24.78C87.5632 24.74 87.7365 24.6933 87.9098 24.64V26.92C87.7365 27.0133 87.4898 27.0867 87.1698 27.14C86.8632 27.1933 86.5165 27.22 86.1298 27.22ZM80.3698 19.08V16.8H87.9098V19.08H80.3698ZM90.2278 31.1L93.0478 24.86L93.5678 24L96.2078 16.8H99.4078L93.2278 31.1H90.2278ZM92.3878 26.8L88.4678 16.8H91.7078L94.9278 25.92L92.3878 26.8ZM106.696 27V24.8H110.416C111.082 24.8 111.582 24.62 111.916 24.26C112.262 23.8867 112.436 23.3733 112.436 22.72C112.436 22.0533 112.249 21.5267 111.876 21.14C111.516 20.7533 110.996 20.56 110.316 20.56H106.696V18.36H110.156C110.782 18.36 111.256 18.2133 111.576 17.92C111.909 17.6133 112.076 17.1667 112.076 16.58C112.076 15.9933 111.916 15.5533 111.596 15.26C111.289 14.9533 110.829 14.8 110.216 14.8H106.696V12.6H110.876C112.156 12.6 113.189 12.9267 113.976 13.58C114.762 14.2333 115.156 15.12 115.156 16.24C115.156 16.9467 114.989 17.5533 114.656 18.06C114.322 18.5667 113.876 18.9533 113.316 19.22C112.756 19.4867 112.129 19.62 111.436 19.62L111.536 19.2C112.282 19.2 112.956 19.36 113.556 19.68C114.169 20 114.656 20.4533 115.016 21.04C115.376 21.6133 115.556 22.2933 115.556 23.08C115.556 23.8667 115.369 24.56 114.996 25.16C114.636 25.7467 114.122 26.2 113.456 26.52C112.802 26.84 112.029 27 111.136 27H106.696ZM104.176 27V12.6H107.256V27H104.176ZM117.208 27V16.8H120.208V27H117.208ZM117.108 15.44V12.2H120.308V15.44H117.108ZM122.598 27V12.6H125.598V27H122.598ZM129.138 27L124.898 21.7L129.038 16.8H132.498L127.638 22.16L127.778 21.22L132.698 27H129.138ZM138.043 27.2C136.91 27.2 135.923 26.98 135.083 26.54C134.243 26.0867 133.59 25.46 133.123 24.66C132.67 23.86 132.443 22.94 132.443 21.9C132.443 20.8467 132.67 19.9267 133.123 19.14C133.59 18.34 134.236 17.72 135.063 17.28C135.89 16.8267 136.85 16.6 137.943 16.6C138.996 16.6 139.91 16.8133 140.683 17.24C141.456 17.6667 142.056 18.26 142.483 19.02C142.91 19.78 143.123 20.6733 143.123 21.7C143.123 21.9133 143.116 22.1133 143.103 22.3C143.09 22.4733 143.07 22.64 143.043 22.8H134.203V20.82H140.623L140.103 21.18C140.103 20.3533 139.903 19.7467 139.503 19.36C139.116 18.96 138.583 18.76 137.903 18.76C137.116 18.76 136.503 19.0267 136.063 19.56C135.636 20.0933 135.423 20.8933 135.423 21.96C135.423 23 135.636 23.7733 136.063 24.28C136.503 24.7867 137.156 25.04 138.023 25.04C138.503 25.04 138.916 24.96 139.263 24.8C139.61 24.64 139.87 24.38 140.043 24.02H142.863C142.53 25.0067 141.956 25.7867 141.143 26.36C140.343 26.92 139.31 27.2 138.043 27.2Z" fill="white"/>
<g clip-path="url(#clip0_11671_1529)">
<path d="M20.3761 0.588651L20.1852 1.84637L21.4534 2.03569L21.6443 0.777966L20.3761 0.588651Z" fill="#3E387B"/>
<path d="M23.9159 5.34302L23.725 6.60074L24.9932 6.79005L25.1841 5.53233L23.9159 5.34302Z" fill="#3E387B"/>
<path d="M15.5821 4.09826L15.3912 5.35599L16.6595 5.5453L16.8504 4.28758L15.5821 4.09826Z" fill="#3E387B"/>
<path d="M24.5808 6.08606L24.4214 6.06251C24.7649 3.80305 23.1897 1.68744 20.9114 1.34759C18.633 1.00691 16.4997 2.56901 16.1571 4.82847L15.9976 4.80492C16.3538 2.45797 18.5694 0.836143 20.936 1.18945C23.3025 1.54275 24.9379 3.73996 24.5817 6.0869L24.5808 6.08606Z" fill="#3E387B"/>
<path d="M16.4196 0.560916L16.3956 0.718964L25.342 2.05443L25.366 1.89639L16.4196 0.560916Z" fill="#3E387B"/>
<path d="M25.3553 2.61106C25.7094 2.61106 25.9965 2.32634 25.9965 1.97512C25.9965 1.62389 25.7094 1.33917 25.3553 1.33917C25.0011 1.33917 24.714 1.62389 24.714 1.97512C24.714 2.32634 25.0011 2.61106 25.3553 2.61106Z" fill="#3E387B"/>
<path d="M16.3878 1.27189C16.7419 1.27189 17.029 0.987169 17.029 0.635946C17.029 0.284723 16.7419 0 16.3878 0C16.0336 0 15.7465 0.284723 15.7465 0.635946C15.7465 0.987169 16.0336 1.27189 16.3878 1.27189Z" fill="#3E387B"/>
<path d="M18.769 7.60557L18.619 8.59378L20.8838 8.93184L21.0337 7.94363L18.769 7.60557Z" fill="#3E387B"/>
<path d="M20.5916 2.73558C20.5831 2.7911 20.5746 2.84577 20.5662 2.90129C20.4499 3.66426 20.3329 4.42723 20.2192 5.19103C20.2107 5.2474 20.1904 5.26674 20.1352 5.27852C19.9436 5.31974 19.8112 5.49471 19.8197 5.6865C19.8282 5.8825 19.9792 6.04485 20.1751 6.07009C20.3668 6.09532 20.5483 5.98176 20.6145 5.79586C20.6764 5.62005 20.595 5.40891 20.4228 5.31806C20.3745 5.29282 20.3541 5.27179 20.3634 5.21375C20.4864 4.42134 20.606 3.62809 20.7265 2.83484C20.7307 2.8096 20.7366 2.78437 20.757 2.75913C20.8138 2.93158 20.8707 3.10486 20.9275 3.27731C21.2549 4.2817 21.5815 5.28609 21.9097 6.28964C21.9276 6.34348 21.9267 6.38554 21.897 6.43601C21.6629 6.83894 21.4313 7.24272 21.2006 7.64649C21.176 7.68855 21.1506 7.70117 21.1022 7.6936C20.3278 7.57667 19.5525 7.46059 18.7772 7.34618C18.728 7.33861 18.7077 7.31843 18.6975 7.27132C18.5957 6.81202 18.4914 6.35357 18.3913 5.89428C18.3845 5.86147 18.3913 5.81605 18.4108 5.78913C19.1199 4.78305 19.8307 3.77866 20.5424 2.77343C20.5526 2.75913 20.5636 2.74483 20.5746 2.73053C20.5797 2.73221 20.5857 2.73305 20.5907 2.73474L20.5916 2.73558Z" fill="#3E387B"/>
<path d="M18.1733 8.91418H17.0562L13.117 9.61406C13.117 9.61406 12.1763 9.32217 11.0592 9.6721L6.29641 11.4218C6.29641 11.4218 5.35572 11.9467 4.94433 12.8796C4.94433 12.8796 3.41582 12.8216 2.23933 14.2205C2.23933 14.2205 -0.112814 15.5033 0.00509002 18.5939C0.122994 21.6844 1.82793 22.6753 2.59219 23.0842C2.59219 23.0842 3.65078 24.309 5.06138 24.309L5.11991 25.5918C5.11991 25.5918 5.23782 26.4666 6.29556 26.8166L9.05909 27.6914C9.05909 27.6914 8.58832 28.7993 8.6477 29.4991C8.6477 29.4991 7.05981 30.141 6.41346 32.4147L1.51239 33.2425C1.16462 33.3014 0.928811 33.6252 0.981402 33.9701L1.37668 36.556C1.43096 36.9084 1.76432 37.1498 2.11973 37.0926L6.1785 36.4382C6.1785 36.4382 7.11919 38.2459 9.35342 37.488C9.30083 37.5057 9.49847 38.2611 9.51289 38.3124C9.58669 38.5723 9.67999 38.8272 9.80214 39.0678C9.92428 39.3084 10.1694 39.5313 10.2644 39.7651C10.015 39.8728 9.77075 39.9679 9.54767 40.1277C9.47048 40.1832 9.3899 40.253 9.38226 40.3472C9.36869 40.5138 9.57481 40.6013 9.74022 40.6349C12.2942 41.1531 14.9348 41.0387 17.5304 40.7981C18.9198 40.6694 20.3108 40.5045 21.6629 40.1597C22.1303 40.041 22.6062 39.893 22.9768 39.5868C23.0642 39.5145 23.1516 39.3967 23.0956 39.2983C23.0718 39.257 23.0277 39.2318 22.9853 39.2099C22.6672 39.0476 22.3161 38.9769 21.9666 38.9172C21.9666 38.9172 22.6138 38.4503 22.6723 36.7015C22.6723 36.7015 23.7894 36.5846 23.7894 35.4187V34.0534C23.7894 34.0534 27.1408 35.9436 29.258 32.678L33.7884 30.9654L35.2558 29.7044C35.2558 29.7044 35.6087 29.4848 35.2558 29.3031L33.4949 28.6908L23.7318 29.6455L23.6139 29.0626H25.1424C25.1424 29.0626 27.7295 28.8876 28.0238 26.0889L29.3173 15.5933C29.3173 15.5933 29.9052 12.5027 26.6717 11.5698L23.4968 11.103V10.6361C23.4968 10.6361 23.3789 9.76127 22.4382 9.52826L18.734 8.94531" fill="#3E387B"/>
<path d="M23.5239 11.7717L26.5224 12.2386C26.5224 12.2386 29.051 12.8215 28.6981 15.4461L27.4046 26.0586C27.4046 26.0586 26.8753 28.4493 25.1118 28.3913L11.647 27.7494C11.647 27.7494 9.5307 27.5745 9.4128 25.4168V12.5911C9.4128 12.5911 9.82419 9.90679 12.5877 10.1978L17.9087 10.9852L17.8501 12.5599C17.8501 12.5599 18.0011 13.6165 19.0724 13.7881L22.495 14.3096C22.495 14.3096 23.4357 14.3677 23.4357 13.6097L23.5239 11.7726V11.7717Z" fill="#7777E8"/>
<path d="M24.1754 12.6744C24.1957 12.6693 24.2186 12.6701 24.2398 12.6718C24.8277 12.7097 25.4248 12.7879 25.9855 12.9763C27.2528 13.4011 27.9636 14.488 27.7863 15.8087C27.4784 18.1001 27.2112 20.3974 26.9406 22.693C26.7642 24.1862 26.9177 27.0597 24.9244 27.4736C24.5232 27.5568 24.1092 27.5299 23.7004 27.5038C21.6036 27.3684 19.505 27.2515 17.4057 27.1531C16.3564 27.1043 15.3055 27.0479 14.2553 27.0201C13.3689 26.9974 12.4554 27.1009 11.6182 26.7451C10.5147 26.2471 10.3297 25.1476 10.3272 24.0717C10.323 22.3002 10.3187 20.5286 10.3153 18.7571C10.3111 17.02 10.1431 15.1937 10.3153 13.4701C10.3552 13.0672 10.4519 12.6701 10.6495 12.3135C10.8548 11.9434 11.1627 11.6296 11.53 11.4159C12.3587 10.9348 13.3944 10.9936 14.3359 11.1821C15.1867 11.352 16.0477 11.4487 16.8908 11.6186C16.979 11.6363 17.0689 11.6582 17.141 11.7103C17.2479 11.7886 17.2988 11.9215 17.3276 12.0502C17.4175 12.443 17.3658 12.8645 17.5066 13.243C17.6432 13.6081 17.9502 13.8924 18.3005 14.0682C18.8901 14.3643 19.606 14.3904 20.2481 14.493C20.992 14.6116 21.7359 14.7302 22.4823 14.8278C22.8157 14.8716 23.1779 14.8556 23.4561 14.6672C24.0346 14.276 24.0295 13.3953 24.1075 12.782C24.1118 12.7484 24.1177 12.7105 24.1448 12.6895C24.1542 12.6828 24.1644 12.6777 24.1745 12.6752L24.1754 12.6744Z" fill="white"/>
<path d="M6.07247 32.9666L1.4844 33.7337C1.41569 33.7455 1.37243 33.8128 1.39025 33.8793L1.50476 34.2957C1.52087 34.3529 1.5777 34.389 1.63708 34.3798L6.02242 33.6808C6.07162 33.6732 6.11064 33.6353 6.11912 33.5865L6.20649 33.102C6.22091 33.0229 6.15136 32.9531 6.07162 32.9666H6.07247Z" fill="#7777E8"/>
<path d="M5.90961 34.5102L1.7711 35.2218C1.70494 35.2336 1.65744 35.2925 1.66253 35.3598L1.7024 35.9166C1.70748 35.9932 1.77789 36.0479 1.85423 36.0361L5.95287 35.3909C6.01649 35.3808 6.06399 35.3261 6.06399 35.2622V34.6389C6.06399 34.5581 5.99019 34.4967 5.90961 34.5102Z" fill="#7777E8"/>
<path d="M22.9361 28.9734L13.726 28.5065C13.726 28.5065 12.4698 29.4394 12.1763 31.4802L23.054 29.7305L22.9361 28.9726V28.9734Z" fill="white"/>
<mask id="mask0_11671_1529" style="mask-type:luminance" maskUnits="userSpaceOnUse" x="12" y="28" width="12" height="4">
<path d="M22.9361 28.9734L13.726 28.5065C13.726 28.5065 12.4698 29.4394 12.1763 31.4802L23.054 29.7305L22.9361 28.9726V28.9734Z" fill="white"/>
</mask>
<g mask="url(#mask0_11671_1529)">
<path d="M16.2512 28.3913C16.2512 28.3913 13.9483 29.0903 13.7676 31.481L11.994 31.7704V29.447L13.7634 28.0405L16.2521 28.3913H16.2512Z" fill="#7777E8"/>
</g>
<path d="M23.1711 33.6967L11.9991 35.5625C11.9991 35.5625 11.8811 36.2624 12.7633 36.3785C12.7633 36.3785 19.231 36.9614 22.6418 36.0285C22.6418 36.0285 23.1711 35.9562 23.1711 35.205V33.6959V33.6967Z" fill="white"/>
<mask id="mask1_11671_1529" style="mask-type:luminance" maskUnits="userSpaceOnUse" x="11" y="33" width="13" height="4">
<path d="M23.1711 33.6967L11.9991 35.5625C11.9991 35.5625 11.8811 36.2624 12.7633 36.3785C12.7633 36.3785 19.231 36.9614 22.6418 36.0285C22.6418 36.0285 23.1711 35.9562 23.1711 35.205V33.6959V33.6967Z" fill="white"/>
</mask>
<g mask="url(#mask1_11671_1529)">
<path d="M13.4105 34.9796C13.4105 34.9796 13.173 36.6123 13.9093 36.8453L11.5385 36.5585L11.7361 35.1276L13.4105 34.9796Z" fill="#7777E8"/>
</g>
<path d="M9.91495 36.227C9.94379 36.0723 9.90477 35.9065 9.77669 35.8182C9.71477 35.7753 9.64097 35.7551 9.57227 35.724C9.3195 35.6071 9.16681 35.3371 9.12016 35.0637C9.07351 34.7911 9.11677 34.5118 9.15918 34.2385C9.26097 33.5882 9.36615 32.9279 9.65285 32.334C9.85218 31.9218 10.1346 31.5508 10.306 31.1269C10.457 30.7534 10.5163 30.2983 10.3221 29.9282C10.0829 29.4722 9.62316 29.7397 9.27624 29.9315C8.65873 30.273 8.04291 30.6667 7.62643 31.2472C7.20825 31.8293 7.03013 32.546 6.91731 33.2517C6.82401 33.8347 6.76887 34.4235 6.7536 35.0132C6.74003 35.507 6.76124 36.0268 7.01401 36.4533C7.3796 37.0708 7.98608 37.0338 8.61122 36.9883C9.06079 36.9564 9.60111 36.8117 9.85049 36.397C9.88102 36.3457 9.90308 36.2868 9.9141 36.2262L9.91495 36.227Z" fill="#7777E8"/>
<path d="M15.8797 37.3122H16.7025C16.7025 37.3122 16.761 38.4781 17.1733 38.828L15.5268 38.8861C15.5268 38.8861 15.9976 38.0701 15.8797 37.3113V37.3122Z" fill="white"/>
<path d="M21.9361 36.8453C21.9361 36.8453 19.4075 37.2533 18.1733 37.2533C18.1733 37.2533 17.9969 39.586 20.1726 39.236C22.3483 38.8861 21.9369 36.8453 21.9369 36.8453H21.9361Z" fill="white"/>
<mask id="mask2_11671_1529" style="mask-type:luminance" maskUnits="userSpaceOnUse" x="18" y="36" width="4" height="4">
<path d="M21.9361 36.8453C21.9361 36.8453 19.4075 37.2533 18.1733 37.2533C18.1733 37.2533 17.9969 39.586 20.1726 39.236C22.3483 38.8861 21.9369 36.8453 21.9369 36.8453H21.9361Z" fill="white"/>
</mask>
<g mask="url(#mask2_11671_1529)">
<path d="M19.6102 36.8453C19.6102 36.8453 18.4363 38.8768 20.0683 39.5229L18.1691 39.5506L17.6143 37.3113L17.879 36.5585L19.6102 36.8453Z" fill="#7777E8"/>
</g>
<path d="M15.2283 37.3122C15.2283 37.3122 11.9991 37.3702 11.0584 37.1372C11.0584 37.1372 10.647 39.7029 12.8812 39.9359C15.1154 40.1689 15.2283 37.3122 15.2283 37.3122Z" fill="white"/>
<mask id="mask3_11671_1529" style="mask-type:luminance" maskUnits="userSpaceOnUse" x="11" y="37" width="5" height="3">
<path d="M15.2283 37.3122C15.2283 37.3122 11.9991 37.3702 11.0584 37.1372C11.0584 37.1372 10.647 39.7029 12.8812 39.9359C15.1154 40.1689 15.2283 37.3122 15.2283 37.3122Z" fill="white"/>
</mask>
<g mask="url(#mask3_11671_1529)">
<path d="M12.4698 37.022C12.4698 37.022 11.4706 39.178 12.9991 40.2858L10.44 39.4673V37.3122L11.0295 36.5593L12.4707 37.0228L12.4698 37.022Z" fill="#7777E8"/>
</g>
<path d="M24.9939 33.4048C25.3213 33.346 25.6488 33.2862 25.9762 33.2273C26.1093 33.203 26.2569 33.171 26.335 33.0599C26.4173 32.943 26.3893 32.7815 26.329 32.6528C26.2688 32.5241 26.1789 32.4072 26.1399 32.2701C26.089 32.0917 26.1306 31.8991 26.2027 31.7283C26.3655 31.3431 26.6895 31.0285 27.0806 30.8745C27.4716 30.7206 27.9254 30.729 28.3105 30.8989C28.604 31.0276 28.8754 31.2875 28.8746 31.6055C28.8746 31.7881 28.7855 31.958 28.6939 32.1161C28.4403 32.5561 28.1468 32.9826 27.7566 33.3089C26.8897 34.0349 25.9261 33.9112 24.9939 33.404V33.4048Z" fill="white"/>
<path d="M16.8798 18.6527C16.23 18.6527 15.7041 18.1303 15.7041 17.4868C15.7041 17.1369 15.8602 16.8231 16.107 16.6095C15.8687 16.5354 15.6142 16.4951 15.3512 16.4951C13.9551 16.4951 12.8227 17.6181 12.8227 19.0027C12.8227 20.3873 13.9551 21.5103 15.3512 21.5103C16.7474 21.5103 17.8798 20.3873 17.8798 19.0027C17.8798 18.7419 17.8391 18.4895 17.7645 18.2532C17.549 18.498 17.2326 18.6527 16.8798 18.6527Z" fill="#3E387B"/>
<path d="M24.3544 19.7993C23.9387 19.7993 23.602 19.4653 23.602 19.0531C23.602 18.8294 23.7021 18.6292 23.8598 18.4921C23.7072 18.445 23.5452 18.4189 23.3764 18.4189C22.4832 18.4189 21.7596 19.1364 21.7596 20.0222C21.7596 20.908 22.4832 21.6255 23.3764 21.6255C24.2695 21.6255 24.9931 20.908 24.9931 20.0222C24.9931 19.8557 24.9676 19.6941 24.9193 19.5427C24.781 19.6992 24.5791 19.7984 24.3535 19.7984L24.3544 19.7993Z" fill="#3E387B"/>
<path d="M2.50567 21.0451C3.38263 21.0451 4.09355 19.8595 4.09355 18.397C4.09355 16.9345 3.38263 15.7489 2.50567 15.7489C1.62871 15.7489 0.917786 16.9345 0.917786 18.397C0.917786 19.8595 1.62871 21.0451 2.50567 21.0451Z" fill="#7777E8"/>
<path d="M2.84665 14.8573C3.23345 14.8085 3.76698 15.24 4.06386 15.4537C4.46592 15.743 4.77468 16.151 4.9791 16.5969C5.25223 17.1899 5.35232 17.8477 5.37607 18.4988C5.40491 19.2929 5.31755 20.1097 4.96214 20.8214C4.59061 21.5667 3.92645 22.1639 3.14269 22.4583C3.36323 22.3759 3.62703 22.4491 3.85859 22.4011C4.12494 22.3456 4.38789 22.2253 4.61945 22.0857C5.69586 21.4405 6.13778 20.1677 6.2014 18.9766C6.22515 18.5325 6.20395 18.0849 6.11827 17.6475C5.96814 16.8745 5.60764 16.1283 5.02576 15.5916C4.44387 15.0558 3.62957 14.7487 2.84326 14.8573C2.84411 14.8573 2.84496 14.8573 2.84665 14.8573Z" fill="#7777E8"/>
<path d="M41 30.0636C40.8295 30.1174 40.7744 30.1528 40.7235 30.1477C39.3231 30.0207 38.1364 30.5692 36.9582 31.2354C36.3407 31.5853 35.6417 31.8713 34.9454 31.9891C33.8706 32.1708 32.9885 31.7325 32.4244 30.771C31.9876 30.0257 32.0529 29.1921 32.6424 28.5595C33.7086 27.4147 35.0344 26.9419 36.5824 27.2691C38.3612 27.6452 39.6242 28.8472 41.0009 30.0628L41 30.0636Z" fill="#3E387B"/>
<mask id="mask4_11671_1529" style="mask-type:luminance" maskUnits="userSpaceOnUse" x="32" y="27" width="10" height="6">
<path d="M41 30.0636C40.8295 30.1174 40.7744 30.1528 40.7235 30.1477C39.3231 30.0207 38.1364 30.5692 36.9582 31.2354C36.3407 31.5853 35.6417 31.8713 34.9454 31.9891C33.8706 32.1708 32.9885 31.7325 32.4244 30.771C31.9876 30.0257 32.0529 29.1921 32.6424 28.5595C33.7086 27.4147 35.0344 26.9419 36.5824 27.2691C38.3612 27.6452 39.6242 28.8472 41.0009 30.0628L41 30.0636Z" fill="white"/>
</mask>
<g mask="url(#mask4_11671_1529)">
<path d="M35.0217 26.4153C35.0217 26.4153 31.214 30.5322 35.9106 32.0303L33.6696 32.8295L32.4117 32.2919L30.8594 29.5993C30.8594 29.5993 31.4354 28.1642 31.5533 28.0473C31.6712 27.9303 35.0225 26.4145 35.0225 26.4145L35.0217 26.4153Z" fill="#7777E8"/>
</g>
<path d="M10.2373 32.2919C10.2373 32.2919 26.7896 29.3082 31.141 29.505C31.141 29.505 10.7971 32.8875 9.91495 33.2955L10.2373 32.2919Z" fill="#7777E8"/>
<path d="M9.91496 34.071L25.7319 31.1378C25.7319 31.1378 25.4308 31.9294 25.5817 32.2919L9.7979 34.9282C9.7979 34.9282 9.73937 34.6717 9.9158 34.071H9.91496Z" fill="#7777E8"/>
<path d="M29.2003 30.7887L31.141 30.5414L30.7882 31.1386L29.3182 31.7805C29.3182 31.7805 29.6125 31.2556 29.2003 30.7895V30.7887Z" fill="#7777E8"/>
</g>
<defs>
<clipPath id="clip0_11671_1529">
<rect width="41" height="41" fill="white"/>
</clipPath>
</defs>
</svg>
