<svg width="28" height="28" viewBox="0 0 28 28" fill="none" xmlns="http://www.w3.org/2000/svg">
  <path fillRule="evenodd" clip-rule="evenodd"
    d="M10.6253 3.32914C11.7244 2.52506 12.7764 2.04166 14 2.04166C15.2236 2.04166 16.2755 2.52506 17.3747 3.32915C18.4412 4.10943 19.6425 5.26144 21.1585 6.715L21.1993 6.7542L24.2083 9.53375V15.8159C24.2083 17.9599 24.2083 19.6581 24.0297 20.9872C23.8457 22.355 23.4582 23.4621 22.5852 24.3353C21.7121 25.2083 20.6049 25.5957 19.2371 25.7797C17.9081 25.9583 16.2099 25.9583 14.0658 25.9583H13.934C11.7901 25.9583 10.0918 25.9583 8.76277 25.7797C7.39495 25.5957 6.28784 25.2083 5.41474 24.3353C4.54165 23.4621 4.15418 22.355 3.97029 20.9872C3.79159 19.6581 3.79161 17.9599 3.79163 15.8158V9.53375L6.80059 6.75417L6.84147 6.71497C8.35734 5.26142 9.55873 4.10943 10.6253 3.32914ZM13.9947 18.375C13.1922 18.375 12.5416 19.0279 12.5416 19.8333C12.5416 20.6388 13.1922 21.2917 13.9947 21.2917C14.7906 21.2917 15.4583 20.6363 15.4583 19.8333C15.4583 19.0303 14.7906 18.375 13.9947 18.375Z"
    fill="#7777E8" />
  <path fillRule="evenodd" clip-rule="evenodd"
    d="M11.8308 4.97693C10.8888 5.66605 9.78676 6.71943 8.20776 8.23348L3.14075 13.0921C2.67567 13.538 1.93715 13.5225 1.4912 13.0574C1.04525 12.5924 1.06076 11.8538 1.52583 11.4079L6.65347 6.49117C8.15749 5.04896 9.37071 3.88561 10.4531 3.09377C11.5787 2.27025 12.6906 1.75 14 1.75C15.3093 1.75 16.4213 2.27025 17.5469 3.09377C18.6292 3.88562 19.8424 5.04896 21.3465 6.49118L26.4741 11.4079C26.9391 11.8538 26.9546 12.5924 26.5087 13.0574C26.0628 13.5225 25.3242 13.538 24.8592 13.0921L19.7921 8.23349C18.2131 6.71943 17.1111 5.66606 16.1691 4.97693C15.256 4.30887 14.6235 4.08333 14 4.08333C13.3764 4.08333 12.7439 4.30887 11.8308 4.97693Z"
    fill="#7777E8" />
</svg>